# xmcd
#
# Track frame offsets: 
#        150
#        15380
#        24468
#        40753
#        47220
#        58037
#        69906
#        78569
#        88887
#        99172
#        109349
#        126121
#        133632
#        145004
#        152407
#        161363
#
# Disc length: 2358 seconds
#
# Revision: 0
# Processed by: cddbd v1.5.2PL0 Copyright (c) Steve Scherf et al.
# Submitted via: ExactAudioCopyFreeDBPlugin 1.0
#
DISCID=c5093410
DTITLE=Billy`s Country Ramblers - Western and Country Oldies
DYEAR=1900
DGENRE=
TTITLE0=All The Good Times
TTITLE1=Cripple Creek
TTITLE2=On Top Of Old Smokey
TTITLE3=Freight Train
TTITLE4=Handsome Molly
TTITLE5=Under The Double Eagle
TTITLE6=Bolle`m Cabbage Down
TTITLE7=Columbus Stockade
TTITLE8=Red River Valley
TTITLE9=Home Sweet Home
TTITLE10=Banks Of The Ohio
TTITLE11=Cindy
TTITLE12=East Virginia
TTITLE13=Oh Suzanna
TTITLE14=Portland Town
TTITLE15=Rye Whisky
EXTD=
EXTT0=
EXTT1=
EXTT2=
EXTT3=
EXTT4=
EXTT5=
EXTT6=
EXTT7=
EXTT8=
EXTT9=
EXTT10=
EXTT11=
EXTT12=
EXTT13=
EXTT14=
EXTT15=
PLAYORDER=
